<svg version="1.1" id="Layer_1" xmlns="http://www.w3.org/2000/svg" xmlns:xlink="http://www.w3.org/1999/xlink" x="0px" y="0px"
	 width="100%" viewBox="0 0 2000 338" enable-background="new 0 0 2000 338" xml:space="preserve">
<path fill="#000000" opacity="1.000000" stroke="none" 
	d="
M182.000000,1.000002 
	C788.273743,1.000000 1394.547485,1.000000 2000.910645,1.000000 
	C2000.910645,113.595932 2000.910645,226.191971 2000.910645,339.000000 
	C1355.300659,339.000000 709.601196,339.000000 63.111763,338.770935 
	C63.526222,337.171356 64.809128,335.861450 65.922798,334.420715 
	C74.711647,323.050964 83.406738,311.608307 92.249023,300.280457 
	C105.625153,283.144226 119.016037,266.017792 132.608887,249.054077 
	C134.831345,246.280441 137.800507,243.646805 140.992355,242.208557 
	C146.729111,239.623611 152.931488,238.090927 158.873291,235.936432 
	C164.317032,233.962555 169.673569,231.748184 175.046829,229.648270 
	C175.761307,217.185959 176.448074,205.206985 177.152176,192.925552 
	C158.947983,197.072159 141.371094,200.988724 123.876259,205.242722 
	C122.611763,205.550201 121.162849,208.297989 121.126495,209.940506 
	C120.883270,220.932693 121.099602,231.934509 120.914680,242.928955 
	C120.878510,245.079971 120.197411,247.506638 119.038895,249.307739 
	C108.126183,266.272888 97.047012,283.130981 86.012161,300.017548 
	C79.278061,310.322723 72.537498,320.623688 65.091232,332.010132 
	C65.091232,329.978882 64.936356,329.296021 65.113518,328.714294 
	C72.712395,303.762177 80.363426,278.825928 87.957611,253.872345 
	C93.010872,237.267960 97.947380,220.627777 103.083931,204.049423 
	C103.457832,202.842636 104.877541,201.410614 106.078705,201.091812 
	C124.107239,196.306686 142.148499,191.557983 160.274979,187.164658 
	C163.349014,186.419601 163.769272,184.863663 164.001312,182.484619 
	C164.988831,172.359604 166.011124,162.237946 166.986389,152.111755 
	C168.669220,134.638580 170.311966,117.161522 171.999191,99.688766 
	C173.308167,86.133018 174.745117,72.589073 175.969315,59.025818 
	C177.401672,43.156429 178.645767,27.270098 180.038345,11.396980 
	C180.148911,10.136726 180.779984,8.922138 181.399902,6.953665 
	C182.436325,10.646852 183.240173,13.437183 184.002335,16.238855 
	C190.687637,40.813805 196.834412,65.552467 204.248764,89.905281 
	C208.558609,104.061211 209.462585,117.926445 207.168457,132.374695 
	C206.171295,138.654800 206.452759,145.137924 206.127640,152.080719 
	C219.281998,150.322174 232.105972,148.607788 244.761292,146.915955 
	C246.636444,134.719482 248.414703,123.153259 250.354370,110.537170 
	C242.308304,110.347466 234.937469,110.080391 227.565414,110.040154 
	C224.007889,110.020729 222.195312,108.807884 220.846390,105.169296 
	C213.633972,85.714775 205.942352,66.438614 198.560547,47.045918 
	C194.527054,36.449600 190.778595,25.744791 187.094727,14.897795 
	C187.414902,14.577544 187.541916,14.448405 187.929352,14.545862 
	C200.495560,33.720276 212.860031,52.630444 225.062698,71.644455 
	C227.841843,75.974884 231.013092,80.150330 230.042801,86.078110 
	C229.098450,91.847336 229.077484,97.767693 228.647812,103.666763 
	C239.638428,104.590904 249.711502,105.437889 259.588776,106.268417 
	C261.124756,95.977959 262.662598,86.632172 263.786163,77.236839 
	C263.980743,75.609566 262.799835,72.608780 261.610901,72.222443 
	C254.217926,69.820221 246.604767,68.106705 239.143570,65.898109 
	C236.005432,64.969185 232.066376,64.220566 230.185974,61.972538 
	C216.640656,45.778934 203.486252,29.256662 190.315567,12.752687 
	C187.327148,9.007948 184.760681,4.926479 182.000000,1.000002 
M354.002319,114.253044 
	C353.561066,109.662750 353.119781,105.072456 352.678497,100.482155 
	C353.189728,100.392914 353.700989,100.303673 354.212219,100.214432 
	C377.321899,163.032028 400.431580,225.849625 423.660553,288.991516 
	C428.738037,288.991516 434.069885,288.756592 439.368896,289.072479 
	C443.019531,289.290100 444.631042,287.842438 445.798340,284.528442 
	C452.477661,265.565399 459.278900,246.644424 466.172394,227.757904 
	C478.722809,193.372650 491.361969,159.019760 503.975769,124.657631 
	C506.958984,116.530846 509.988159,108.420914 512.996216,100.303238 
	C513.434937,100.384766 513.873596,100.466293 514.312317,100.547821 
	C513.940308,106.072639 513.568359,111.597458 513.057922,118.031410 
	C513.038574,167.653244 513.011719,217.275070 513.008911,266.896912 
	C513.008545,273.553833 513.129639,280.210785 513.663696,287.551422 
	C524.909851,287.551422 536.155945,287.551422 547.670654,287.551422 
	C547.670654,207.741501 547.670654,128.203583 547.670654,48.061398 
	C533.242371,48.061398 519.133423,48.003139 505.027588,48.187160 
	C504.044830,48.199986 502.618927,49.837959 502.184235,51.011097 
	C493.534454,74.355652 485.016449,97.748970 476.438934,121.120384 
	C465.809540,150.082855 455.069885,179.005249 444.558258,208.010330 
	C441.808136,215.598801 439.726624,223.429550 437.009277,232.211411 
	C435.323029,226.494644 434.185944,221.725098 432.520508,217.147781 
	C424.122772,194.067337 415.619324,171.025131 407.092560,147.991882 
	C395.193939,115.850189 383.166107,83.755875 371.431793,51.554482 
	C370.281067,48.396633 368.634460,47.975201 365.944641,47.983852 
	C352.449188,48.027248 338.953552,47.994106 325.458038,48.019661 
	C324.162933,48.022110 322.868256,48.243851 320.932983,48.423107 
	C321.242828,50.408459 321.538574,52.093140 321.764526,53.787132 
	C322.853271,61.950298 324.826874,70.112602 324.857361,78.281296 
	C325.109222,145.758179 324.999817,213.236404 324.999817,280.714233 
	C324.999817,282.974884 324.999817,285.235565 324.999817,287.998840 
	C333.261841,287.998840 340.728363,288.070587 348.191772,287.948456 
	C350.061249,287.917877 351.920532,287.264038 353.925934,285.986908 
	C353.950623,265.833771 354.005249,245.680634 353.993469,225.527527 
	C353.971954,188.719574 353.911163,151.911652 354.002319,114.253044 
M1378.882812,200.251984 
	C1391.236206,166.209045 1403.589478,132.166107 1415.942871,98.123169 
	C1416.112549,98.223213 1416.282104,98.323265 1416.451782,98.423309 
	C1416.451782,161.430008 1416.451782,224.436707 1416.451782,287.620514 
	C1427.658081,287.620514 1438.547852,287.620514 1449.628418,287.620514 
	C1449.628418,207.688248 1449.628418,128.134796 1449.628418,48.291542 
	C1434.666260,48.291542 1420.074341,48.291542 1405.278687,48.291542 
	C1382.956177,109.446846 1360.687012,170.456131 1338.417725,231.465424 
	C1338.835205,230.572388 1338.391846,229.176620 1337.965088,227.775803 
	C1335.566895,219.902802 1333.555786,211.887131 1330.709473,204.179779 
	C1319.582397,174.049561 1308.166138,144.026291 1296.908081,113.944328 
	C1289.167603,93.261574 1281.470337,72.562279 1273.861084,51.831028 
	C1272.748657,48.800861 1270.914062,47.920517 1267.839478,47.949158 
	C1254.341309,48.074894 1240.841309,47.994026 1227.342041,48.019363 
	C1226.042480,48.021805 1224.743286,48.240494 1223.228271,48.378437 
	C1223.354004,49.449074 1223.416138,50.242321 1223.543579,51.024944 
	C1225.023315,60.114281 1227.753296,69.195274 1227.802368,78.291191 
	C1228.167480,145.785660 1228.000488,213.283005 1228.000610,280.779449 
	C1228.000610,283.034271 1228.000610,285.289093 1228.000610,287.576630 
	C1237.751587,287.576630 1246.643066,287.576630 1255.529907,287.576630 
	C1255.529907,224.562454 1255.529907,161.970490 1255.529907,98.171967 
	C1261.076538,113.073105 1266.296631,126.882912 1271.360107,140.749939 
	C1279.007202,161.692825 1286.463745,182.705536 1294.150635,203.633682 
	C1303.361572,228.711075 1312.782349,253.711349 1322.003784,278.784943 
	C1325.740234,288.944519 1325.609985,288.992950 1336.412476,288.991974 
	C1338.578979,288.991760 1340.870850,289.424255 1342.874756,288.851807 
	C1344.660034,288.341766 1347.017456,287.054932 1347.595825,285.531464 
	C1353.029785,271.214355 1358.105103,256.761688 1363.344727,242.370270 
	C1368.375000,228.553711 1373.477295,214.763351 1378.882812,200.251984 
M1724.999756,89.500000 
	C1724.999756,75.887337 1724.999756,62.274673 1724.999756,48.045414 
	C1710.579590,48.045414 1696.802246,47.975510 1683.029053,48.181633 
	C1681.957764,48.197666 1680.419434,49.958309 1679.935303,51.227425 
	C1674.477539,65.533691 1669.161987,79.894478 1663.850464,94.256294 
	C1655.767212,116.112228 1647.582764,137.932022 1639.692017,159.857330 
	C1632.197266,180.682281 1625.016846,201.620438 1617.718872,222.516098 
	C1616.647217,225.584869 1615.691162,228.694000 1615.132812,230.403046 
	C1592.834351,170.140564 1570.237793,109.072655 1547.738403,48.267487 
	C1530.814331,48.267487 1514.690308,48.267487 1497.515381,48.267487 
	C1503.876465,65.273026 1503.035278,82.534218 1503.020386,99.745331 
	C1502.968018,160.232742 1503.000000,220.720245 1503.000000,281.207703 
	C1503.000000,283.302277 1503.000000,285.396851 1503.000000,287.604279 
	C1512.695679,287.604279 1521.585205,287.604279 1530.898926,287.604279 
	C1530.898926,225.307526 1530.898926,163.403198 1530.898926,101.498863 
	C1533.468384,105.497353 1535.293457,109.635368 1536.850830,113.871780 
	C1551.030273,152.438644 1565.142212,191.030319 1579.318359,229.598419 
	C1586.150879,248.187668 1593.159180,266.712891 1599.879639,285.342224 
	C1600.936768,288.272522 1602.432495,289.155609 1605.310059,289.034943 
	C1609.468506,288.860504 1613.669678,289.277710 1617.791016,288.849060 
	C1619.464111,288.675018 1621.796875,287.295135 1622.415649,285.856018 
	C1624.955444,279.949768 1626.941772,273.806091 1629.148193,267.755798 
	C1646.230347,220.912567 1663.293701,174.062485 1680.419922,127.235382 
	C1683.856812,117.837776 1687.537476,108.529266 1691.496948,98.154587 
	C1691.496948,162.058624 1691.496948,224.720337 1691.496948,287.652405 
	C1702.595337,287.652405 1713.483398,287.652405 1724.999756,287.652405 
	C1724.999756,221.705139 1724.999756,156.102570 1724.999756,89.500000 
M757.595581,48.001038 
	C755.178284,48.110802 752.760986,48.220566 750.000000,48.345940 
	C750.000000,51.088547 750.000000,53.238079 750.000000,55.387615 
	C750.000000,105.871216 750.067505,156.355042 749.909485,206.838135 
	C749.891052,212.736633 749.380798,218.841080 747.806519,224.489975 
	C742.143494,244.809921 730.235413,259.746704 708.770020,264.376831 
	C700.552124,266.149445 691.786072,266.236603 683.326050,265.852753 
	C665.612915,265.049103 651.740356,257.324066 643.060120,241.270218 
	C637.069153,230.190033 635.188232,218.097198 635.119141,205.885513 
	C634.834412,155.570114 634.999939,105.252197 635.000000,54.935204 
	C635.000000,52.827087 635.000000,50.718967 635.000000,48.492714 
	C621.308716,48.492714 608.324402,48.492714 595.609985,48.492714 
	C597.120117,58.019764 599.714417,67.095253 599.804871,76.195633 
	C600.240417,120.010406 599.908386,163.832275 600.090759,207.650604 
	C600.121460,215.037476 600.671509,222.553467 602.124817,229.779877 
	C607.714966,257.576294 623.483521,276.939056 650.662048,286.318695 
	C669.557861,292.839874 689.089233,293.820190 708.525879,290.624176 
	C719.124634,288.881439 730.236267,285.952454 739.401550,280.613983 
	C765.668945,265.314087 778.326416,240.783676 778.776672,210.995926 
	C779.569702,158.524963 779.002380,106.033371 778.985046,53.550419 
	C778.984497,51.801125 778.772400,50.051907 778.639282,48.001026 
	C771.542236,48.001026 765.055908,48.001026 757.595581,48.001038 
M1033.106812,184.710022 
	C1030.677734,191.885635 1028.319092,199.085938 1025.806763,206.232269 
	C1018.313110,227.547607 1010.708496,248.824081 1003.263123,270.156158 
	C1001.289368,275.811157 999.732849,281.611755 997.785645,287.998779 
	C1004.655334,287.998779 1010.684204,287.494965 1016.593201,288.121338 
	C1024.685425,288.979187 1030.566650,287.564789 1031.520142,278.122345 
	C1031.627808,277.056641 1032.651855,276.116455 1033.016235,275.038727 
	C1039.992554,254.397141 1047.012207,233.769424 1053.797363,213.064865 
	C1054.811035,209.971390 1056.223633,208.930679 1059.391724,208.945572 
	C1082.050537,209.052109 1104.710327,209.067810 1127.368896,208.931351 
	C1130.783081,208.910797 1132.205200,210.020615 1133.285156,213.309387 
	C1139.776611,233.079041 1146.549438,252.756409 1153.249146,272.457489 
	C1154.952271,277.465820 1155.338501,284.474976 1158.854858,286.893250 
	C1162.652100,289.504730 1169.407593,287.902649 1174.874756,287.976288 
	C1181.789185,288.069458 1188.705811,287.998779 1196.232544,287.998779 
	C1195.474854,285.385742 1195.057617,283.652344 1194.473145,281.977386 
	C1189.690796,268.272034 1184.852905,254.586151 1180.078491,240.878052 
	C1172.048096,217.820770 1164.041992,194.754974 1156.044189,171.686356 
	C1147.345093,146.594543 1138.683594,121.489731 1129.973877,96.401642 
	C1124.778564,81.436684 1119.604492,66.462959 1114.169434,51.585014 
	C1113.615845,50.069710 1111.366577,48.227139 1109.842651,48.169621 
	C1101.191162,47.843124 1092.517944,47.899689 1083.860474,48.134624 
	C1082.522583,48.170929 1080.454102,49.527611 1080.027710,50.734451 
	C1071.831421,73.930458 1063.872681,97.210213 1055.776001,120.441673 
	C1048.386841,141.643143 1040.891846,162.807693 1033.106812,184.710022 
M884.500000,287.998901 
	C914.988892,287.998596 945.478027,288.044281 975.966125,287.888977 
	C977.890869,287.879150 981.308899,286.538086 981.484436,285.417267 
	C982.617493,278.184326 983.041382,270.840332 983.747437,262.981995 
	C941.512695,262.981995 899.793213,262.981995 857.039673,262.981995 
	C859.385071,259.651184 861.263184,257.216583 862.896851,254.627701 
	C877.956909,230.761444 892.912720,206.829147 908.029663,182.999069 
	C916.203979,170.113220 924.732239,157.452087 932.923706,144.576920 
	C946.111755,123.848465 958.527100,102.592987 972.505981,82.417290 
	C980.131653,71.411072 979.088196,60.221081 978.693909,48.415192 
	C926.579895,48.415192 875.036682,48.415192 823.407959,48.415192 
	C823.407959,56.723137 823.407959,64.612457 823.407959,73.008438 
	C861.203552,73.008438 898.596436,73.008438 936.543884,73.008438 
	C935.929993,74.503723 935.693604,75.462608 935.190063,76.250839 
	C920.263855,99.614616 905.333984,122.976135 890.354065,146.305573 
	C881.248413,160.486465 871.993591,174.571838 862.922058,188.774368 
	C847.910034,212.277603 832.975830,235.830658 818.063599,259.397339 
	C816.852722,261.311005 815.313721,263.454254 815.211914,265.553131 
	C814.859863,272.812225 815.076172,280.098938 815.076172,287.998901 
	C838.284546,287.998901 860.892273,287.998901 884.500000,287.998901 
M1900.000000,186.500000 
	C1900.000000,140.446518 1900.000000,94.393028 1900.000000,48.449638 
	C1886.465942,48.449638 1873.912720,48.449638 1861.123291,48.449638 
	C1861.242798,49.879234 1861.179932,50.881790 1861.425781,51.801819 
	C1864.180298,62.107349 1865.131714,72.538597 1865.098755,83.242447 
	C1864.895752,149.051804 1864.996948,214.862076 1864.996948,280.672058 
	C1864.996948,282.936829 1864.997070,285.201630 1864.997070,287.633179 
	C1909.986084,287.633179 1954.198608,287.633179 1998.640747,287.633179 
	C1998.640747,279.376953 1998.640747,271.488892 1998.640747,262.960144 
	C1965.735229,262.960144 1933.181519,262.960144 1900.000000,262.960144 
	C1900.000000,237.381165 1900.000000,212.440582 1900.000000,186.500000 
M1812.000000,176.500000 
	C1812.000000,133.778473 1812.000000,91.056953 1812.000000,48.464806 
	C1798.492432,48.464806 1785.969971,48.464806 1772.590698,48.464806 
	C1778.340820,65.020493 1778.096558,81.554611 1778.057373,98.135796 
	C1777.912964,159.114624 1778.000000,220.093979 1778.000000,281.073151 
	C1778.000000,283.180450 1778.000000,285.287781 1778.000000,287.653625 
	C1789.595825,287.653625 1800.483154,287.653625 1812.000000,287.653625 
	C1812.000000,250.707825 1812.000000,214.103912 1812.000000,176.500000 
M189.418579,159.998932 
	C186.978668,159.657181 185.591446,160.378479 185.973343,163.177750 
	C186.128998,164.318619 186.005600,165.503342 185.954773,166.665726 
	C185.285477,181.970230 184.606445,197.274307 183.915222,212.909378 
	C185.451660,212.827301 186.622803,212.997147 187.638351,212.675583 
	C202.444702,207.987488 217.195618,203.120697 232.044052,198.571579 
	C235.961487,197.371384 236.896317,195.020065 237.076660,191.362473 
	C237.301239,186.807724 238.123611,182.284500 238.627777,177.740997 
	C239.525528,169.650589 240.378189,161.555161 241.270050,153.272842 
	C239.964172,153.141861 239.321396,152.954483 238.714005,153.034805 
	C228.853638,154.338730 218.990372,155.624832 209.143478,157.025482 
	C202.856110,157.919785 196.594452,158.994949 189.418579,159.998932 
z"/>
<path fill="#FF5858" opacity="1.000000" stroke="none" 
	d="
M186.901581,15.088911 
	C190.778595,25.744791 194.527054,36.449600 198.560547,47.045918 
	C205.942352,66.438614 213.633972,85.714775 220.846390,105.169296 
	C222.195312,108.807884 224.007889,110.020729 227.565414,110.040154 
	C234.937469,110.080391 242.308304,110.347466 250.354370,110.537170 
	C248.414703,123.153259 246.636444,134.719482 244.761292,146.915955 
	C232.105972,148.607788 219.281998,150.322174 206.127640,152.080719 
	C206.452759,145.137924 206.171295,138.654800 207.168457,132.374695 
	C209.462585,117.926445 208.558609,104.061211 204.248764,89.905281 
	C196.834412,65.552467 190.687637,40.813805 184.002335,16.238855 
	C183.240173,13.437183 182.436325,10.646852 181.399902,6.953665 
	C180.779984,8.922138 180.148911,10.136726 180.038345,11.396980 
	C178.645767,27.270098 177.401672,43.156429 175.969315,59.025818 
	C174.745117,72.589073 173.308167,86.133018 171.999191,99.688766 
	C170.311966,117.161522 168.669220,134.638580 166.986389,152.111755 
	C166.011124,162.237946 164.988831,172.359604 164.001312,182.484619 
	C163.769272,184.863663 163.349014,186.419601 160.274979,187.164658 
	C142.148499,191.557983 124.107239,196.306686 106.078705,201.091812 
	C104.877541,201.410614 103.457832,202.842636 103.083931,204.049423 
	C97.947380,220.627777 93.010872,237.267960 87.957611,253.872345 
	C80.363426,278.825928 72.712395,303.762177 65.113518,328.714294 
	C64.936356,329.296021 65.091232,329.978882 65.091232,332.010132 
	C72.537498,320.623688 79.278061,310.322723 86.012161,300.017548 
	C97.047012,283.130981 108.126183,266.272888 119.038895,249.307739 
	C120.197411,247.506638 120.878510,245.079971 120.914680,242.928955 
	C121.099602,231.934509 120.883270,220.932693 121.126495,209.940506 
	C121.162849,208.297989 122.611763,205.550201 123.876259,205.242722 
	C141.371094,200.988724 158.947983,197.072159 177.152176,192.925552 
	C176.448074,205.206985 175.761307,217.185959 175.046829,229.648270 
	C169.673569,231.748184 164.317032,233.962555 158.873291,235.936432 
	C152.931488,238.090927 146.729111,239.623611 140.992355,242.208557 
	C137.800507,243.646805 134.831345,246.280441 132.608887,249.054077 
	C119.016037,266.017792 105.625153,283.144226 92.249023,300.280457 
	C83.406738,311.608307 74.711647,323.050964 65.922798,334.420715 
	C64.809128,335.861450 63.526222,337.171356 62.660858,338.770935 
	C62.555553,339.000000 62.111111,339.000000 61.697304,338.686554 
	C58.468792,321.625336 55.273140,304.864868 51.933167,288.133209 
	C48.371033,270.288696 44.514400,252.501801 41.075344,234.634140 
	C37.170612,214.347015 33.693527,193.977829 29.833420,173.681824 
	C25.673063,151.807114 21.298120,129.973114 16.991331,108.126373 
	C13.062330,88.196007 9.068842,68.278297 5.173763,48.341339 
	C4.262444,43.676758 3.633705,38.956978 2.833840,34.008209 
	C10.533266,35.661572 17.338341,37.155945 24.157913,38.580921 
	C42.440800,42.401199 60.719345,46.243462 79.019371,49.980240 
	C99.074493,54.075401 119.184441,57.911850 139.183472,62.261246 
	C142.129089,62.901859 143.039291,62.567261 144.485840,60.145756 
	C153.240768,45.490128 162.241028,30.981329 171.090530,16.381760 
	C174.161301,11.315701 177.035828,6.130683 180.000000,1.000000 
	C180.444443,1.000000 180.888901,1.000000 181.666672,1.000002 
	C184.760681,4.926479 187.327148,9.007948 190.315567,12.752687 
	C203.486252,29.256662 216.640656,45.778934 230.185974,61.972538 
	C232.066376,64.220566 236.005432,64.969185 239.143570,65.898109 
	C246.604767,68.106705 254.217926,69.820221 261.610901,72.222443 
	C262.799835,72.608780 263.980743,75.609566 263.786163,77.236839 
	C262.662598,86.632172 261.124756,95.977959 259.588776,106.268417 
	C249.711502,105.437889 239.638428,104.590904 228.647812,103.666763 
	C229.077484,97.767693 229.098450,91.847336 230.042801,86.078110 
	C231.013092,80.150330 227.841843,75.974884 225.062698,71.644455 
	C212.860031,52.630444 200.495560,33.720276 187.712402,14.293221 
	C186.690216,12.754865 186.145401,11.695745 185.600586,10.636627 
	C185.276596,10.816464 184.952606,10.996302 184.628601,11.176140 
	C185.386261,12.480397 186.143921,13.784655 186.901581,15.088911 
M57.999950,294.465454 
	C59.265839,306.735931 60.531727,319.006409 61.797615,331.276886 
	C65.457161,318.531281 68.287888,305.868500 70.978111,293.175964 
	C75.864281,270.122833 80.143364,246.923920 85.739723,224.046112 
	C88.287247,213.631882 87.059235,203.533768 86.908363,193.274597 
	C86.843163,188.840759 86.295891,184.412491 85.928513,179.984924 
	C84.964233,168.363602 84.004234,156.741806 82.985413,145.125214 
	C82.682976,141.676804 84.420006,140.982666 87.482948,140.932144 
	C93.417076,140.834229 99.343834,140.322342 105.275078,140.009247 
	C118.133591,139.330444 130.988556,138.343231 143.854355,138.167267 
	C148.708450,138.100861 151.002686,136.891434 151.586853,132.019424 
	C152.009888,128.491241 153.207825,125.061317 153.966003,121.567139 
	C159.131485,97.761490 164.247757,73.945160 169.430237,50.143230 
	C172.216614,37.346104 175.102783,24.570702 178.112671,11.026144 
	C177.238174,12.098997 176.747070,12.489272 176.531403,12.996628 
	C167.201157,34.947170 157.807861,56.871639 148.631851,78.886650 
	C145.209824,87.096771 140.802933,94.934547 141.826309,104.594078 
	C142.674759,112.602371 141.999878,120.772057 141.999878,128.910339 
	C128.368271,129.974274 115.426567,131.130280 102.463814,131.955597 
	C89.120384,132.805176 75.755638,133.316910 62.401848,134.007919 
	C56.801376,134.297745 51.206299,134.690842 45.606365,134.992355 
	C43.089584,135.127884 42.219692,135.400452 42.670677,138.777420 
	C44.235165,150.492279 44.964016,162.319031 45.997807,174.104340 
	C46.700935,182.120071 47.279709,190.148193 48.097675,198.152008 
	C49.313217,210.046143 50.762714,221.916397 51.974846,233.810837 
	C52.791302,241.822617 53.261505,249.869720 54.080692,257.881165 
	C55.296947,269.775818 56.684971,281.652893 57.999950,294.465454 
z"/>
<path fill="#000000" opacity="1.000000" stroke="none" 
	d="
M179.531342,1.000000 
	C177.035828,6.130683 174.161301,11.315701 171.090530,16.381760 
	C162.241028,30.981329 153.240768,45.490128 144.485840,60.145756 
	C143.039291,62.567261 142.129089,62.901859 139.183472,62.261246 
	C119.184441,57.911850 99.074493,54.075401 79.019371,49.980240 
	C60.719345,46.243462 42.440800,42.401199 24.157913,38.580921 
	C17.338341,37.155945 10.533266,35.661572 2.833840,34.008209 
	C3.633705,38.956978 4.262444,43.676758 5.173763,48.341339 
	C9.068842,68.278297 13.062330,88.196007 16.991331,108.126373 
	C21.298120,129.973114 25.673063,151.807114 29.833420,173.681824 
	C33.693527,193.977829 37.170612,214.347015 41.075344,234.634140 
	C44.514400,252.501801 48.371033,270.288696 51.933167,288.133209 
	C55.273140,304.864868 58.468792,321.625336 61.363976,338.686554 
	C41.015175,339.000000 21.030348,339.000000 1.022761,339.000000 
	C1.022761,226.433990 1.022761,113.867981 1.022761,1.000000 
	C60.353886,1.000000 119.708282,1.000000 179.531342,1.000000 
z"/>
<path fill="#8D021F" opacity="1.000000" stroke="none" 
	d="
M513.196411,117.122276 
	C513.568359,111.597458 513.940308,106.072639 514.312317,100.547821 
	C513.873596,100.466293 513.434937,100.384766 512.996216,100.303238 
	C509.988159,108.420914 506.958984,116.530846 503.975769,124.657631 
	C491.361969,159.019760 478.722809,193.372650 466.172394,227.757904 
	C459.278900,246.644424 452.477661,265.565399 445.798340,284.528442 
	C444.631042,287.842438 443.019531,289.290100 439.368896,289.072479 
	C434.069885,288.756592 428.738037,288.991516 423.660553,288.991516 
	C400.431580,225.849625 377.321899,163.032028 354.212219,100.214432 
	C353.700989,100.303673 353.189728,100.392914 352.678497,100.482155 
	C353.119781,105.072456 353.561066,109.662750 353.745575,115.031311 
	C353.325989,117.454071 353.021606,119.098503 353.020874,120.743080 
	C352.996094,174.338974 352.992950,227.934860 353.033569,281.530731 
	C353.034912,283.319550 353.523163,285.108002 353.784485,286.896606 
	C351.920532,287.264038 350.061249,287.917877 348.191772,287.948456 
	C340.728363,288.070587 333.261841,287.998840 324.999817,287.998840 
	C324.999817,285.235565 324.999817,282.974884 324.999817,280.714233 
	C324.999817,213.236404 325.109222,145.758179 324.857361,78.281296 
	C324.826874,70.112602 322.853271,61.950298 321.764526,53.787132 
	C321.538574,52.093140 321.242828,50.408459 320.932983,48.423107 
	C322.868256,48.243851 324.162933,48.022110 325.458038,48.019661 
	C338.953552,47.994106 352.449188,48.027248 365.944641,47.983852 
	C368.634460,47.975201 370.281067,48.396633 371.431793,51.554482 
	C383.166107,83.755875 395.193939,115.850189 407.092560,147.991882 
	C415.619324,171.025131 424.122772,194.067337 432.520508,217.147781 
	C434.185944,221.725098 435.323029,226.494644 437.009277,232.211411 
	C439.726624,223.429550 441.808136,215.598801 444.558258,208.010330 
	C455.069885,179.005249 465.809540,150.082855 476.438934,121.120384 
	C485.016449,97.748970 493.534454,74.355652 502.184235,51.011097 
	C502.618927,49.837959 504.044830,48.199986 505.027588,48.187160 
	C519.133423,48.003139 533.242371,48.061398 547.670654,48.061398 
	C547.670654,128.203583 547.670654,207.741501 547.670654,287.551422 
	C536.155945,287.551422 524.909851,287.551422 513.609009,286.852844 
	C513.702820,284.507385 513.980408,282.860565 513.981140,281.213623 
	C514.003906,228.467987 514.008545,175.722336 513.966064,122.976730 
	C513.964478,121.025032 513.464233,119.073753 513.196411,117.122276 
z"/>
<path fill="#8D021F" opacity="1.000000" stroke="none" 
	d="
M1378.715332,200.606720 
	C1373.477295,214.763351 1368.375000,228.553711 1363.344727,242.370270 
	C1358.105103,256.761688 1353.029785,271.214355 1347.595825,285.531464 
	C1347.017456,287.054932 1344.660034,288.341766 1342.874756,288.851807 
	C1340.870850,289.424255 1338.578979,288.991760 1336.412476,288.991974 
	C1325.609985,288.992950 1325.740234,288.944519 1322.003784,278.784943 
	C1312.782349,253.711349 1303.361572,228.711075 1294.150635,203.633682 
	C1286.463745,182.705536 1279.007202,161.692825 1271.360107,140.749939 
	C1266.296631,126.882912 1261.076538,113.073105 1255.529907,98.171967 
	C1255.529907,161.970490 1255.529907,224.562454 1255.529907,287.576630 
	C1246.643066,287.576630 1237.751587,287.576630 1228.000610,287.576630 
	C1228.000610,285.289093 1228.000610,283.034271 1228.000610,280.779449 
	C1228.000488,213.283005 1228.167480,145.785660 1227.802368,78.291191 
	C1227.753296,69.195274 1225.023315,60.114281 1223.543579,51.024944 
	C1223.416138,50.242321 1223.354004,49.449074 1223.228271,48.378437 
	C1224.743286,48.240494 1226.042480,48.021805 1227.342041,48.019363 
	C1240.841309,47.994026 1254.341309,48.074894 1267.839478,47.949158 
	C1270.914062,47.920517 1272.748657,48.800861 1273.861084,51.831028 
	C1281.470337,72.562279 1289.167603,93.261574 1296.908081,113.944328 
	C1308.166138,144.026291 1319.582397,174.049561 1330.709473,204.179779 
	C1333.555786,211.887131 1335.566895,219.902802 1337.965088,227.775803 
	C1338.391846,229.176620 1338.835205,230.572388 1338.417725,231.465424 
	C1360.687012,170.456131 1382.956177,109.446846 1405.278687,48.291542 
	C1420.074341,48.291542 1434.666260,48.291542 1449.628418,48.291542 
	C1449.628418,128.134796 1449.628418,207.688248 1449.628418,287.620514 
	C1438.547852,287.620514 1427.658081,287.620514 1416.451782,287.620514 
	C1416.451782,224.436707 1416.451782,161.430008 1416.451782,98.423309 
	C1416.282104,98.323265 1416.112549,98.223213 1415.942871,98.123169 
	C1403.589478,132.166107 1391.236206,166.209045 1378.715332,200.606720 
z"/>
<path fill="#8D021F" opacity="1.000000" stroke="none" 
	d="
M1724.999756,90.000000 
	C1724.999756,156.102570 1724.999756,221.705139 1724.999756,287.652405 
	C1713.483398,287.652405 1702.595337,287.652405 1691.496948,287.652405 
	C1691.496948,224.720337 1691.496948,162.058624 1691.496948,98.154587 
	C1687.537476,108.529266 1683.856812,117.837776 1680.419922,127.235382 
	C1663.293701,174.062485 1646.230347,220.912567 1629.148193,267.755798 
	C1626.941772,273.806091 1624.955444,279.949768 1622.415649,285.856018 
	C1621.796875,287.295135 1619.464111,288.675018 1617.791016,288.849060 
	C1613.669678,289.277710 1609.468506,288.860504 1605.310059,289.034943 
	C1602.432495,289.155609 1600.936768,288.272522 1599.879639,285.342224 
	C1593.159180,266.712891 1586.150879,248.187668 1579.318359,229.598419 
	C1565.142212,191.030319 1551.030273,152.438644 1536.850830,113.871780 
	C1535.293457,109.635368 1533.468384,105.497353 1530.898926,101.498863 
	C1530.898926,163.403198 1530.898926,225.307526 1530.898926,287.604279 
	C1521.585205,287.604279 1512.695679,287.604279 1503.000000,287.604279 
	C1503.000000,285.396851 1503.000000,283.302277 1503.000000,281.207703 
	C1503.000000,220.720245 1502.968018,160.232742 1503.020386,99.745331 
	C1503.035278,82.534218 1503.876465,65.273026 1497.515381,48.267487 
	C1514.690308,48.267487 1530.814331,48.267487 1547.738403,48.267487 
	C1570.237793,109.072655 1592.834351,170.140564 1615.132812,230.403046 
	C1615.691162,228.694000 1616.647217,225.584869 1617.718872,222.516098 
	C1625.016846,201.620438 1632.197266,180.682281 1639.692017,159.857330 
	C1647.582764,137.932022 1655.767212,116.112228 1663.850464,94.256294 
	C1669.161987,79.894478 1674.477539,65.533691 1679.935303,51.227425 
	C1680.419434,49.958309 1681.957764,48.197666 1683.029053,48.181633 
	C1696.802246,47.975510 1710.579590,48.045414 1724.999756,48.045414 
	C1724.999756,62.274673 1724.999756,75.887337 1724.999756,90.000000 
z"/>
<path fill="#8D021F" opacity="1.000000" stroke="none" 
	d="
M758.082581,48.001030 
	C765.055908,48.001026 771.542236,48.001026 778.639282,48.001026 
	C778.772400,50.051907 778.984497,51.801125 778.985046,53.550419 
	C779.002380,106.033371 779.569702,158.524963 778.776672,210.995926 
	C778.326416,240.783676 765.668945,265.314087 739.401550,280.613983 
	C730.236267,285.952454 719.124634,288.881439 708.525879,290.624176 
	C689.089233,293.820190 669.557861,292.839874 650.662048,286.318695 
	C623.483521,276.939056 607.714966,257.576294 602.124817,229.779877 
	C600.671509,222.553467 600.121460,215.037476 600.090759,207.650604 
	C599.908386,163.832275 600.240417,120.010406 599.804871,76.195633 
	C599.714417,67.095253 597.120117,58.019764 595.609985,48.492714 
	C608.324402,48.492714 621.308716,48.492714 635.000000,48.492714 
	C635.000000,50.718967 635.000000,52.827087 635.000000,54.935204 
	C634.999939,105.252197 634.834412,155.570114 635.119141,205.885513 
	C635.188232,218.097198 637.069153,230.190033 643.060120,241.270218 
	C651.740356,257.324066 665.612915,265.049103 683.326050,265.852753 
	C691.786072,266.236603 700.552124,266.149445 708.770020,264.376831 
	C730.235413,259.746704 742.143494,244.809921 747.806519,224.489975 
	C749.380798,218.841080 749.891052,212.736633 749.909485,206.838135 
	C750.067505,156.355042 750.000000,105.871216 750.000000,55.387615 
	C750.000000,53.238079 750.000000,51.088547 750.000000,48.345940 
	C752.760986,48.220566 755.178284,48.110802 758.082581,48.001030 
z"/>
<path fill="#8D021F" opacity="1.000000" stroke="none" 
	d="
M1033.275146,184.349274 
	C1040.891846,162.807693 1048.386841,141.643143 1055.776001,120.441673 
	C1063.872681,97.210213 1071.831421,73.930458 1080.027710,50.734451 
	C1080.454102,49.527611 1082.522583,48.170929 1083.860474,48.134624 
	C1092.517944,47.899689 1101.191162,47.843124 1109.842651,48.169621 
	C1111.366577,48.227139 1113.615845,50.069710 1114.169434,51.585014 
	C1119.604492,66.462959 1124.778564,81.436684 1129.973877,96.401642 
	C1138.683594,121.489731 1147.345093,146.594543 1156.044189,171.686356 
	C1164.041992,194.754974 1172.048096,217.820770 1180.078491,240.878052 
	C1184.852905,254.586151 1189.690796,268.272034 1194.473145,281.977386 
	C1195.057617,283.652344 1195.474854,285.385742 1196.232544,287.998779 
	C1188.705811,287.998779 1181.789185,288.069458 1174.874756,287.976288 
	C1169.407593,287.902649 1162.652100,289.504730 1158.854858,286.893250 
	C1155.338501,284.474976 1154.952271,277.465820 1153.249146,272.457489 
	C1146.549438,252.756409 1139.776611,233.079041 1133.285156,213.309387 
	C1132.205200,210.020615 1130.783081,208.910797 1127.368896,208.931351 
	C1104.710327,209.067810 1082.050537,209.052109 1059.391724,208.945572 
	C1056.223633,208.930679 1054.811035,209.971390 1053.797363,213.064865 
	C1047.012207,233.769424 1039.992554,254.397141 1033.016235,275.038727 
	C1032.651855,276.116455 1031.627808,277.056641 1031.520142,278.122345 
	C1030.566650,287.564789 1024.685425,288.979187 1016.593201,288.121338 
	C1010.684204,287.494965 1004.655334,287.998779 997.785645,287.998779 
	C999.732849,281.611755 1001.289368,275.811157 1003.263123,270.156158 
	C1010.708496,248.824081 1018.313110,227.547607 1025.806763,206.232269 
	C1028.319092,199.085938 1030.677734,191.885635 1033.275146,184.349274 
M1066.153809,176.664703 
	C1065.662720,178.640121 1065.171631,180.615540 1064.640869,182.750702 
	C1084.169800,182.750702 1103.083862,182.750702 1122.897949,182.750702 
	C1113.142334,153.121750 1103.550903,123.991447 1093.721802,94.139549 
	C1084.446045,122.010002 1075.468872,148.983017 1066.153809,176.664703 
z"/>
<path fill="#8D021F" opacity="1.000000" stroke="none" 
	d="
M884.000000,287.998901 
	C860.892273,287.998901 838.284546,287.998901 815.076172,287.998901 
	C815.076172,280.098938 814.859863,272.812225 815.211914,265.553131 
	C815.313721,263.454254 816.852722,261.311005 818.063599,259.397339 
	C832.975830,235.830658 847.910034,212.277603 862.922058,188.774368 
	C871.993591,174.571838 881.248413,160.486465 890.354065,146.305573 
	C905.333984,122.976135 920.263855,99.614616 935.190063,76.250839 
	C935.693604,75.462608 935.929993,74.503723 936.543884,73.008438 
	C898.596436,73.008438 861.203552,73.008438 823.407959,73.008438 
	C823.407959,64.612457 823.407959,56.723137 823.407959,48.415192 
	C875.036682,48.415192 926.579895,48.415192 978.693909,48.415192 
	C979.088196,60.221081 980.131653,71.411072 972.505981,82.417290 
	C958.527100,102.592987 946.111755,123.848465 932.923706,144.576920 
	C924.732239,157.452087 916.203979,170.113220 908.029663,182.999069 
	C892.912720,206.829147 877.956909,230.761444 862.896851,254.627701 
	C861.263184,257.216583 859.385071,259.651184 857.039673,262.981995 
	C899.793213,262.981995 941.512695,262.981995 983.747437,262.981995 
	C983.041382,270.840332 982.617493,278.184326 981.484436,285.417267 
	C981.308899,286.538086 977.890869,287.879150 975.966125,287.888977 
	C945.478027,288.044281 914.988892,287.998596 884.000000,287.998901 
z"/>
<path fill="#8D021F" opacity="1.000000" stroke="none" 
	d="
M1900.000000,187.000000 
	C1900.000000,212.440582 1900.000000,237.381165 1900.000000,262.960144 
	C1933.181519,262.960144 1965.735229,262.960144 1998.640747,262.960144 
	C1998.640747,271.488892 1998.640747,279.376953 1998.640747,287.633179 
	C1954.198608,287.633179 1909.986084,287.633179 1864.997070,287.633179 
	C1864.997070,285.201630 1864.996948,282.936829 1864.996948,280.672058 
	C1864.996948,214.862076 1864.895752,149.051804 1865.098755,83.242447 
	C1865.131714,72.538597 1864.180298,62.107349 1861.425781,51.801819 
	C1861.179932,50.881790 1861.242798,49.879234 1861.123291,48.449638 
	C1873.912720,48.449638 1886.465942,48.449638 1900.000000,48.449638 
	C1900.000000,94.393028 1900.000000,140.446518 1900.000000,187.000000 
z"/>
<path fill="#8D021F" opacity="1.000000" stroke="none" 
	d="
M1812.000000,177.000000 
	C1812.000000,214.103912 1812.000000,250.707825 1812.000000,287.653625 
	C1800.483154,287.653625 1789.595825,287.653625 1778.000000,287.653625 
	C1778.000000,285.287781 1778.000000,283.180450 1778.000000,281.073151 
	C1778.000000,220.093979 1777.912964,159.114624 1778.057373,98.135796 
	C1778.096558,81.554611 1778.340820,65.020493 1772.590698,48.464806 
	C1785.969971,48.464806 1798.492432,48.464806 1812.000000,48.464806 
	C1812.000000,91.056953 1812.000000,133.778473 1812.000000,177.000000 
z"/>
<path fill="#FF5858" opacity="1.000000" stroke="none" 
	d="
M189.869934,159.993988 
	C196.594452,158.994949 202.856110,157.919785 209.143478,157.025482 
	C218.990372,155.624832 228.853638,154.338730 238.714005,153.034805 
	C239.321396,152.954483 239.964172,153.141861 241.270050,153.272842 
	C240.378189,161.555161 239.525528,169.650589 238.627777,177.740997 
	C238.123611,182.284500 237.301239,186.807724 237.076660,191.362473 
	C236.896317,195.020065 235.961487,197.371384 232.044052,198.571579 
	C217.195618,203.120697 202.444702,207.987488 187.638351,212.675583 
	C186.622803,212.997147 185.451660,212.827301 183.915222,212.909378 
	C184.606445,197.274307 185.285477,181.970230 185.954773,166.665726 
	C186.005600,165.503342 186.128998,164.318619 185.973343,163.177750 
	C185.591446,160.378479 186.978668,159.657181 189.869934,159.993988 
z"/>
<path fill="#7F002A" opacity="1.000000" stroke="none" 
	d="
M353.855225,286.441772 
	C353.523163,285.108002 353.034912,283.319550 353.033569,281.530731 
	C352.992950,227.934860 352.996094,174.338974 353.020874,120.743080 
	C353.021606,119.098503 353.325989,117.454071 353.677795,115.456642 
	C353.911163,151.911652 353.971954,188.719574 353.993469,225.527527 
	C354.005249,245.680634 353.950623,265.833771 353.855225,286.441772 
z"/>
<path fill="#990033" opacity="1.000000" stroke="none" 
	d="
M513.127197,117.576843 
	C513.464233,119.073753 513.964478,121.025032 513.966064,122.976730 
	C514.008545,175.722336 514.003906,228.467987 513.981140,281.213623 
	C513.980408,282.860565 513.702820,284.507385 513.374390,286.510986 
	C513.129639,280.210785 513.008545,273.553833 513.008911,266.896912 
	C513.011719,217.275070 513.038574,167.653244 513.127197,117.576843 
z"/>
<path fill="#000000" opacity="1.000000" stroke="none" 
	d="
M57.999920,294.001465 
	C56.684971,281.652893 55.296947,269.775818 54.080692,257.881165 
	C53.261505,249.869720 52.791302,241.822617 51.974846,233.810837 
	C50.762714,221.916397 49.313217,210.046143 48.097675,198.152008 
	C47.279709,190.148193 46.700935,182.120071 45.997807,174.104340 
	C44.964016,162.319031 44.235165,150.492279 42.670677,138.777420 
	C42.219692,135.400452 43.089584,135.127884 45.606365,134.992355 
	C51.206299,134.690842 56.801376,134.297745 62.401848,134.007919 
	C75.755638,133.316910 89.120384,132.805176 102.463814,131.955597 
	C115.426567,131.130280 128.368271,129.974274 141.999878,128.910339 
	C141.999878,120.772057 142.674759,112.602371 141.826309,104.594078 
	C140.802933,94.934547 145.209824,87.096771 148.631851,78.886650 
	C157.807861,56.871639 167.201157,34.947170 176.531403,12.996628 
	C176.747070,12.489272 177.238174,12.098997 178.112671,11.026144 
	C175.102783,24.570702 172.216614,37.346104 169.430237,50.143230 
	C164.247757,73.945160 159.131485,97.761490 153.966003,121.567139 
	C153.207825,125.061317 152.009888,128.491241 151.586853,132.019424 
	C151.002686,136.891434 148.708450,138.100861 143.854355,138.167267 
	C130.988556,138.343231 118.133591,139.330444 105.275078,140.009247 
	C99.343834,140.322342 93.417076,140.834229 87.482948,140.932144 
	C84.420006,140.982666 82.682976,141.676804 82.985413,145.125214 
	C84.004234,156.741806 84.964233,168.363602 85.928513,179.984924 
	C86.295891,184.412491 86.843163,188.840759 86.908363,193.274597 
	C87.059235,203.533768 88.287247,213.631882 85.739723,224.046112 
	C80.143364,246.923920 75.864281,270.122833 70.978111,293.175964 
	C68.287888,305.868500 65.457161,318.531281 61.797615,331.276886 
	C60.531727,319.006409 59.265839,306.735931 57.999920,294.001465 
z"/>
<path fill="#000000" opacity="1.000000" stroke="none" 
	d="
M187.094727,14.897798 
	C186.143921,13.784655 185.386261,12.480397 184.628601,11.176140 
	C184.952606,10.996302 185.276596,10.816464 185.600586,10.636627 
	C186.145401,11.695745 186.690216,12.754865 187.451996,14.066626 
	C187.541916,14.448405 187.414902,14.577544 187.094727,14.897798 
z"/>
<path fill="#000000" opacity="1.000000" stroke="none" 
	d="
M1066.322754,176.310364 
	C1075.468872,148.983017 1084.446045,122.010002 1093.721802,94.139549 
	C1103.550903,123.991447 1113.142334,153.121750 1122.897949,182.750702 
	C1103.083862,182.750702 1084.169800,182.750702 1064.640869,182.750702 
	C1065.171631,180.615540 1065.662720,178.640121 1066.322754,176.310364 
z"/>
</svg>